Coordinates
version=1
nRows=60
nColumns=12
inDegrees=yes

Units are S.I. units (second, meters, Newtons, ...)
Angles are in degrees

endheader
time	SC_y	SC_z	SC_x	AC_y	AC_z	AC_x	GH_y	GH_z	GH_yy	EL_x	PS_y
       0.0              -52.19           33.4          12.49          37.93         -19.48          19.47         -140.5          73.52         -38.55          31.96          57.05
   0.01696              -52.19           33.4           12.5          37.93         -19.48          19.47         -140.4           73.5         -38.52          31.96          57.06
   0.03392              -52.19           33.4           12.5          37.93         -19.48          19.46         -140.4          73.49          -38.5          31.96          57.07
   0.05088              -52.18          33.39          12.51          37.93         -19.48          19.46         -140.3          73.48         -38.47          31.96          57.08
   0.06784              -52.18          33.39          12.52          37.93         -19.48          19.46         -140.3          73.47         -38.45          31.96           57.1
    0.0848              -52.17          33.38          12.52          37.93         -19.48          19.45         -140.2          73.45         -38.42          31.96          57.11
    0.1018              -52.16          33.38          12.53          37.93         -19.48          19.44         -140.2          73.44         -38.39          31.96          57.13
    0.1187              -52.16          33.37          12.54          37.93         -19.48          19.44         -140.1          73.42         -38.36          31.96          57.14
    0.1357              -52.15          33.36          12.55          37.93         -19.48          19.43         -140.1          73.41         -38.32          31.96          57.16
    0.1526              -52.14          33.36          12.56          37.93         -19.48          19.43         -140.0          73.39         -38.28          31.96          57.18
    0.1696              -52.13          33.35          12.57          37.93         -19.48          19.42         -139.9          73.37         -38.24          31.96           57.2
    0.1866              -52.13          33.34          12.58          37.93         -19.48          19.41         -139.9          73.35          -38.2          31.96          57.22
    0.2035              -52.12          33.33          12.59          37.94         -19.48           19.4         -139.8          73.32         -38.15          31.97          57.25
    0.2205              -52.11          33.33           12.6          37.94         -19.48          19.39         -139.7           73.3          -38.1          31.97          57.27
    0.2374               -52.1          33.32          12.61          37.94         -19.47          19.38         -139.6          73.27         -38.05          31.97           57.3
    0.2544              -52.08           33.3          12.63          37.94         -19.47          19.37         -139.5          73.24         -37.99          31.97          57.33
    0.2714              -52.07          33.29          12.64          37.94         -19.47          19.36         -139.4          73.21         -37.93          31.97          57.37
    0.2883              -52.06          33.28          12.66          37.94         -19.47          19.35         -139.2          73.18         -37.86          31.97           57.4
    0.3053              -52.04          33.27          12.68          37.95         -19.47          19.33         -139.1          73.14         -37.78          31.97          57.44
    0.3222              -52.03          33.25           12.7          37.95         -19.47          19.32         -139.0           73.1          -37.7          31.97          57.48
    0.3392              -52.01          33.24          12.72          37.95         -19.47           19.3         -138.8          73.05          -37.6          31.98          57.53
    0.3562              -51.99          33.22          12.74          37.95         -19.46          19.28         -138.6           73.0          -37.5          31.98          57.58
    0.3731              -51.97           33.2          12.77          37.95         -19.46          19.26         -138.4          72.95         -37.39          31.98          57.64
    0.3901              -51.94          33.18           12.8          37.96         -19.46          19.24         -138.2          72.88         -37.27          31.98           57.7
    0.4071              -51.91          33.15          12.83          37.96         -19.46          19.22         -138.0          72.82         -37.13          31.99          57.77
     0.424              -51.88          33.12          12.87          37.96         -19.45          19.19         -137.7          72.74         -36.98          31.99          57.85
     0.441              -51.85          33.09          12.91          37.97         -19.45          19.16         -137.4          72.66         -36.81          31.99          57.94
    0.4579              -51.81          33.06          12.96          37.97         -19.45          19.12         -137.0          72.56         -36.61           32.0          58.04
    0.4749              -51.77          33.02          13.01          37.98         -19.44          19.08         -136.6          72.45         -36.39           32.0          58.15
    0.4919              -51.72          32.97          13.07          37.99         -19.44          19.04         -136.2          72.33         -36.15           32.0          58.28
    0.5088              -51.66          32.92          13.14          37.99         -19.43          18.99         -135.7          72.19         -35.86          32.01          58.43
    0.5258               -51.6          32.86          13.21           38.0         -19.43          18.93         -135.1          72.03         -35.54          32.02          58.59
    0.5427              -51.52           32.8           13.3          38.01         -19.42          18.86         -134.4          71.85         -35.16          32.02          58.79
    0.5597              -51.44          32.72          13.41          38.02         -19.41          18.78         -133.7          71.63         -34.73          32.03          59.01
    0.5767              -51.34          32.63          13.53          38.03          -19.4          18.69         -132.8          71.38         -34.22          32.04          59.27
    0.5936              -51.22          32.52          13.67          38.05         -19.39          18.58         -131.7          71.08         -33.61          32.05          59.58
    0.6106              -51.08          32.39          13.84          38.06         -19.38          18.45         -130.4          70.73          -32.9          32.07          59.95
    0.6275              -50.91          32.24          14.05          38.09         -19.36           18.3         -128.9          70.31         -32.04          32.08          60.39
    0.6445               -50.7          32.05           14.3          38.11         -19.35          18.11         -127.1           69.8         -31.01           32.1          60.92
    0.6615              -50.45          31.82           14.6          38.14         -19.32          17.88         -124.8          69.17         -29.74          32.13          61.57
    0.6784              -50.14          31.54          14.97          38.18         -19.29           17.6         -122.0           68.4         -28.18          32.16          62.37
    0.6954              -49.76          31.19          15.44          38.23         -19.26          17.25         -118.6          67.44         -26.23          32.19          63.37
    0.7123              -49.27          30.75          16.03          38.29         -19.21          16.81         -114.2          66.23         -23.78          32.24          64.63
    0.7293              -48.65          30.19          16.77          38.36         -19.16          16.25         -108.6          64.69         -20.66           32.3          66.24
    0.7463              -47.86          29.48          17.73          38.46         -19.08          15.53         -101.5          62.72         -16.66          32.38          68.29
    0.7632              -46.85          28.56          18.95          38.59         -18.99           14.6          -92.4          60.19         -11.54          32.48          70.92
    0.7802              -45.55          27.38          20.52          38.75         -18.87          13.42         -80.75          56.96         -4.992           32.6          74.28
    0.7971              -43.92           25.9          22.48          38.95         -18.72          11.94          -66.1           52.9          3.239          32.76          78.51
    0.8141              -41.93           24.1          24.88          39.19         -18.54          10.13         -48.24          47.95          13.27          32.96          83.66
    0.8311              -39.63          22.01          27.66          39.48         -18.33           8.03         -27.55          42.21           24.9          33.18          89.64
     0.848              -37.14          19.75          30.67          39.79          -18.1          5.759         -5.139           36.0          37.48          33.42           96.1
     0.865              -34.65          17.49          33.68          40.09         -17.87          3.489          17.27          29.79          50.07          33.66          102.6
    0.8819              -32.34          15.41          36.46          40.38         -17.65          1.392          37.96          24.05           61.7          33.89          108.5
    0.8989              -30.36          13.61          38.86          40.62         -17.47        -0.4175          55.82           19.1          71.73          34.08          113.7
    0.9159              -28.73          12.13          40.83          40.82         -17.32         -1.902          70.47          15.04          79.96          34.24          117.9
    0.9328              -27.43          10.95          42.39          40.98          -17.2         -3.083          82.12          11.81          86.51          34.36          121.3
    0.9498              -26.42          10.03          43.62          41.11         -17.11         -4.007          91.24          9.282          91.63          34.46          123.9
    0.9667              -25.62          9.317          44.57          41.21         -17.04         -4.727          98.35          7.311          95.63          34.54          126.0
    0.9837              -25.01          8.757          45.32          41.28         -16.98          -5.29          103.9          5.772          98.75           34.6          127.6
     1.001              -24.52          8.316          45.91          41.34         -16.93         -5.733          108.3          4.561          101.2          34.65          128.8
